<?xml version="1.0" encoding="UTF-8" standalone="no"?>
<svg
   xmlns:dc="http://purl.org/dc/elements/1.1/"
   xmlns:cc="http://creativecommons.org/ns#"
   xmlns:rdf="http://www.w3.org/1999/02/22-rdf-syntax-ns#"
   xmlns:svg="http://www.w3.org/2000/svg"
   xmlns="http://www.w3.org/2000/svg"
   xmlns:sodipodi="http://sodipodi.sourceforge.net/DTD/sodipodi-0.dtd"
   xmlns:inkscape="http://www.inkscape.org/namespaces/inkscape"
   id="svg8"
   version="1.1"
   viewBox="0 0 135.46666 135.46667"
   height="512"
   width="512"
   sodipodi:docname="icon.svg"
   inkscape:version="0.92.4 (5da689c313, 2019-01-14)"
   inkscape:export-filename="/home/nadav/Pictures/NewIcons/ScheduleSuite/icon.svg.png"
   inkscape:export-xdpi="96"
   inkscape:export-ydpi="96">
  <sodipodi:namedview
     pagecolor="#ffffff"
     bordercolor="#666666"
     borderopacity="1"
     objecttolerance="10"
     gridtolerance="10"
     guidetolerance="10"
     inkscape:pageopacity="0"
     inkscape:pageshadow="2"
     inkscape:window-width="1366"
     inkscape:window-height="731"
     id="namedview1207"
     showgrid="false"
     inkscape:zoom="0.4609375"
     inkscape:cx="256"
     inkscape:cy="429.55932"
     inkscape:window-x="0"
     inkscape:window-y="0"
     inkscape:window-maximized="1"
     inkscape:current-layer="svg8" />
  <defs
     id="defs2">
    <marker
       style="overflow:visible"
       id="Arrow1Lstart"
       refX="0.0"
       refY="0.0"
       orient="auto">
      <path
         transform="scale(0.8) translate(12.5,0)"
         style="fill-rule:evenodd;stroke:none;stroke-width:1pt;stroke-opacity:1;fill:#6677bb;fill-opacity:1"
         d="M 0.0,0.0 L 5.0,-5.0 L -12.5,0.0 L 5.0,5.0 L 0.0,0.0 z "
         id="path857" />
    </marker>
  </defs>
  <metadata
     id="metadata5">
    <rdf:RDF>
      <cc:Work
         rdf:about="">
        <dc:format>image/svg+xml</dc:format>
        <dc:type
           rdf:resource="http://purl.org/dc/dcmitype/StillImage" />
        <dc:title />
      </cc:Work>
    </rdf:RDF>
  </metadata>
  <circle
     style="opacity:1;fill:#88cc99;fill-opacity:1;stroke:none;stroke-width:6.56070185;stroke-linecap:round;stroke-linejoin:round;stroke-miterlimit:4;stroke-dasharray:none;stroke-dashoffset:0;stroke-opacity:1;paint-order:stroke markers fill"
     id="path815"
     cx="67.73333"
     cy="67.73333"
     r="67.73333" />
  <path
     inkscape:connector-curvature="0"
     style="fill:none;stroke:#ffffff;stroke-width:10.52064133;stroke-linecap:round;stroke-linejoin:round;stroke-miterlimit:4;stroke-dasharray:none;stroke-opacity:1"
     d="m 76.276649,40.467926 c 1.956702,-7.302507 3.913342,-14.604789 2.279333,-18.326562 -1.634007,-3.721781 -7.078618,-3.869235 -14.272417,-2.52593 -7.193802,1.343313 -16.245718,4.174224 -23.515582,8.417504 -7.269863,4.243272 -12.756727,9.8985 -16.212996,16.039839 -3.456267,6.141331 -4.881454,12.768022 -5.448364,18.807409 -0.56691,6.039387 -0.275445,11.490774 1.86321,16.152463 2.138655,4.66169 6.124164,8.533046 20.465145,2.0958 14.340983,-6.437256 39.036634,-23.182747 53.380131,-28.976458 14.343501,-5.793709 18.334881,-0.635724 20.272921,4.55605 1.93803,5.191765 1.82275,10.417527 0.87441,16.354609 -0.94833,5.937083 -2.72972,12.58531 -5.38592,18.356855 -2.6562,5.771539 -6.18706,10.665965 -11.032005,14.472285 -4.844946,3.80632 -10.873977,6.46687 -17.007012,8.21126 -6.133034,1.74437 -12.304455,2.54373 -16.916283,2.53461 -4.611828,-0.009 -7.663375,-0.82679 -8.360852,-4.10962 -0.69748,-3.28282 0.959175,-9.02962 2.615887,-14.776614"
     id="path1157" />
</svg>
