<?xml version="1.0" encoding="UTF-8" standalone="no"?>
<svg
   xmlns:dc="http://purl.org/dc/elements/1.1/"
   xmlns:cc="http://creativecommons.org/ns#"
   xmlns:rdf="http://www.w3.org/1999/02/22-rdf-syntax-ns#"
   xmlns:svg="http://www.w3.org/2000/svg"
   xmlns="http://www.w3.org/2000/svg"
   id="svg895"
   version="1.1"
   viewBox="0 0 135.46666 135.46667"
   height="512"
   width="512">
  <defs
     id="defs889" />
  <metadata
     id="metadata892">
    <rdf:RDF>
      <cc:Work
         rdf:about="">
        <dc:format>image/svg+xml</dc:format>
        <dc:type
           rdf:resource="http://purl.org/dc/dcmitype/StillImage" />
        <dc:title></dc:title>
      </cc:Work>
    </rdf:RDF>
  </metadata>
  <g
     transform="translate(0,-161.53332)"
     id="layer1">
    <path
       id="path823"
       d="m 110.87626,176.03738 c -6.03606,20.88993 -12.072243,41.78028 -16.220512,59.32489 -4.148268,17.54461 -6.444393,31.96851 -4.032916,39.56398 2.411476,7.59546 9.512118,8.47384 13.842578,7.04863 4.33047,-1.42522 5.89078,-5.15376 7.45089,-8.88183"
       style="fill:none;stroke:#ffffff;stroke-width:10.58333333;stroke-linecap:round;stroke-linejoin:miter;stroke-miterlimit:4;stroke-dasharray:none;stroke-opacity:1" />
    <path
       id="path4714"
       d="m 61.811419,189.83097 c -5.018855,27.30257 -10.037772,54.60548 -13.651332,70.11395 -3.61356,15.50847 -5.82166,19.22209 -8.933623,21.09196 -3.111962,1.86988 -7.126737,1.89494 -10.075524,0.45195 -2.948788,-1.44299 -4.830885,-4.35396 -5.407988,-7.18979 -0.577103,-2.83583 0.150638,-5.59623 0.878288,-8.35627"
       style="fill:none;stroke:#ffffff;stroke-width:10.58333333;stroke-linecap:round;stroke-linejoin:miter;stroke-miterlimit:4;stroke-dasharray:none;stroke-opacity:1" />
    <path
       id="path4718"
       d="m 53.078502,232.59215 c 8.733221,-0.10038 17.466137,-0.20076 24.168527,1.24017 6.70239,1.44093 11.465859,4.48145 16.183569,7.49275"
       style="fill:none;stroke:#ffffff;stroke-width:10.58333333;stroke-linecap:butt;stroke-linejoin:miter;stroke-miterlimit:4;stroke-dasharray:none;stroke-opacity:1" />
  </g>
</svg>
