<?xml version="1.0" encoding="UTF-8" standalone="no"?>
<svg
   xmlns:dc="http://purl.org/dc/elements/1.1/"
   xmlns:cc="http://creativecommons.org/ns#"
   xmlns:rdf="http://www.w3.org/1999/02/22-rdf-syntax-ns#"
   xmlns:svg="http://www.w3.org/2000/svg"
   xmlns="http://www.w3.org/2000/svg"
   width="48"
   height="48"
   viewBox="0 0 48 48"
   version="1.1"
   id="svg4">
  <metadata
     id="metadata10">
    <rdf:RDF>
      <cc:Work
         rdf:about="">
        <dc:format>image/svg+xml</dc:format>
        <dc:type
           rdf:resource="http://purl.org/dc/dcmitype/StillImage" />
        <dc:title></dc:title>
      </cc:Work>
    </rdf:RDF>
  </metadata>
  <defs
     id="defs8" />
  <path
     style="fill:#ffffff;fill-opacity:1"
     d="M36 32.17c-1.52 0-2.89.59-3.93 1.54L17.82 25.4c.11-.45.18-.92.18-1.4s-.07-.95-.18-1.4l14.1-8.23c1.07 1 2.5 1.62 4.08 1.62 3.31 0 6-2.69 6-6s-2.69-6-6-6-6 2.69-6 6c0 .48.07.95.18 1.4l-14.1 8.23c-1.07-1-2.5-1.62-4.08-1.62-3.31 0-6 2.69-6 6s2.69 6 6 6c1.58 0 3.01-.62 4.08-1.62l14.25 8.31c-.1.42-.16.86-.16 1.31 0 3.22 2.61 5.83 5.83 5.83s5.83-2.61 5.83-5.83-2.61-5.83-5.83-5.83z"
     id="path2" />
</svg>
