<?xml version="1.0" encoding="UTF-8" standalone="no"?>
<svg
   xmlns:dc="http://purl.org/dc/elements/1.1/"
   xmlns:cc="http://creativecommons.org/ns#"
   xmlns:rdf="http://www.w3.org/1999/02/22-rdf-syntax-ns#"
   xmlns:svg="http://www.w3.org/2000/svg"
   xmlns="http://www.w3.org/2000/svg"
   width="48"
   height="48"
   viewBox="0 0 48 48"
   version="1.1"
   id="svg4">
  <metadata
     id="metadata10">
    <rdf:RDF>
      <cc:Work
         rdf:about="">
        <dc:format>image/svg+xml</dc:format>
        <dc:type
           rdf:resource="http://purl.org/dc/dcmitype/StillImage" />
        <dc:title></dc:title>
      </cc:Work>
    </rdf:RDF>
  </metadata>
  <defs
     id="defs8" />
  <path
     id="path2-3"
     style="stroke-width:0.43502825;fill:#ffffff;fill-opacity:1"
     d="m 44.220337,14.593333 c -0.661243,0 -1.257232,0.256667 -1.709661,0.669944 l -6.199153,-3.615085 c 0.04785,-0.195763 0.07831,-0.400226 0.07831,-0.60904 0,-0.208814 -0.03045,-0.413277 -0.07831,-0.60904 l 6.133899,-3.5802819 c 0.46548,0.4350282 1.08757,0.7047457 1.774915,0.7047457 1.439943,0 2.610169,-1.1702259 2.610169,-2.6101695 0,-1.4399433 -1.170226,-2.6101693 -2.610169,-2.6101693 -1.439944,0 -2.61017,1.170226 -2.61017,2.6101693 0,0.2088136 0.03045,0.4132769 0.07831,0.6090396 l -6.133899,3.5802822 c -0.46548,-0.435028 -1.08757,-0.7047455 -1.774915,-0.7047455 -1.439943,0 -2.610169,1.1702265 -2.610169,2.6101694 0,1.439944 1.170226,2.61017 2.610169,2.61017 0.687345,0 1.309435,-0.269718 1.774915,-0.704746 l 6.199153,3.615085 c -0.0435,0.182712 -0.0696,0.374124 -0.0696,0.569887 0,1.400791 1.135424,2.536215 2.536215,2.536215 1.400791,0 2.536215,-1.135424 2.536215,-2.536215 0,-1.400791 -1.135424,-2.536215 -2.536215,-2.536215 z M 20,41.86 C 12.11,40.88 6,34.16 6,26 6,24.77 6.15,23.57 6.42,22.42 L 16,32 v 2 c 0,2.21 1.79,4 4,4 z M 37.85,24 c 0.08,0.66 0.15,1.32 0.15,2 0,4.16 -1.6,7.94 -4.21,10.79 C 33.28,35.17 31.78,34 30,34 h -2 v -6 c 0,-1.1 -0.9,-2 -2,-2 H 14 v -4 h 4 c 1.1,0 2,-0.9 2,-2 v -4 h 4 c 2.21,0 4,-1.79 4,-4 V 6.92 C 26.11,6.32 24.09,6 22,6 10.95,6 2,14.95 2,26 c 0,11.05 8.95,20 20,20 11.05,0 20,-8.95 20,-20 0,-0.68 -0.04,-1.34 -0.1,-2 z" />
</svg>
